<?xml version="1.0" standalone="no"?>
<!DOCTYPE svg PUBLIC "-//W3C//DTD SVG 20010904//EN"
 "http://www.w3.org/TR/2001/REC-SVG-20010904/DTD/svg10.dtd">
<svg version="1.0" xmlns="http://www.w3.org/2000/svg"
 width="417.000000pt" height="417.000000pt" viewBox="0 0 417.000000 417.000000"
 preserveAspectRatio="xMidYMid meet">

<g transform="translate(0.000000,417.000000) scale(0.100000,-0.100000)"
fill="#ffffff" stroke="none">
<path d="M1439 3729 c-59 -34 -74 -70 -74 -174 0 -78 3 -94 23 -123 40 -56 64
-62 237 -62 l155 0 0 -65 c0 -59 -2 -65 -20 -65 -55 0 -183 -35 -255 -70 -151
-73 -252 -175 -325 -325 -73 -151 -70 -106 -70 -1232 l0 -1008 24 -51 c26 -57
84 -110 136 -125 23 -6 227 -9 577 -7 l541 3 43 30 c24 17 57 50 74 74 l30 43
5 686 c3 378 7 686 10 686 109 -32 216 -30 293 4 65 29 148 110 183 179 26 52
28 68 29 158 0 90 -3 106 -28 157 -50 102 -152 185 -250 203 l-37 7 0 247 c0
135 -5 275 -11 311 -30 191 -181 346 -371 381 -61 11 -67 14 -72 41 -8 42 -40
83 -80 102 -29 14 -81 16 -383 16 -334 0 -349 -1 -384 -21z m742 -78 c21 -17
24 -28 24 -90 0 -113 25 -106 -384 -109 -340 -3 -348 -2 -374 18 -25 20 -27
27 -27 91 0 116 -23 109 389 109 329 0 350 -1 372 -19z m264 -180 c74 -37 136
-101 174 -181 26 -55 26 -56 29 -347 3 -277 2 -293 -15 -293 -10 -1 -34 -7
-54 -14 l-36 -13 -17 76 c-27 125 -87 232 -186 332 -71 72 -100 94 -180 133
-89 43 -199 75 -262 76 -28 0 -28 1 -28 65 l0 65 166 0 166 0 39 39 c22 22 42
53 45 71 7 31 8 32 51 27 24 -2 73 -19 108 -36z m-472 -326 c117 -25 211 -77
303 -169 95 -96 145 -187 171 -313 l17 -81 -43 -47 c-52 -57 -81 -119 -88
-191 l-6 -54 -585 0 -585 0 5 178 c5 155 9 187 32 258 66 204 231 359 439 414
88 23 244 26 340 5z m809 -595 c125 -38 191 -130 192 -265 0 -53 -5 -81 -23
-117 -68 -141 -261 -205 -403 -135 -232 114 -204 445 45 523 60 18 116 17 189
-6z m-442 -365 c0 -26 39 -97 81 -147 l39 -47 0 -420 0 -421 -647 2 -648 3 -3
523 -2 522 590 0 c525 0 590 -2 590 -15z m120 -1336 c0 -248 -4 -268 -68 -317
l-35 -27 -526 -3 c-341 -2 -538 0 -561 7 -20 6 -51 27 -70 46 l-35 36 -3 240
-3 239 650 0 651 0 0 -221z"/>
<path d="M2656 2424 c-13 -34 -6 -152 10 -168 20 -20 38 -20 58 0 19 18 22
133 6 165 -13 24 -65 26 -74 3z"/>
<path d="M1290 1655 l0 -175 25 0 25 0 0 112 c0 62 4 108 8 103 5 -6 21 -56
36 -112 28 -100 29 -103 57 -103 l29 0 0 175 0 175 -25 0 c-25 0 -25 -1 -26
-92 l-1 -93 -26 93 -27 92 -37 0 -38 0 0 -175z"/>
<path d="M1510 1655 l0 -175 25 0 25 0 0 175 0 175 -25 0 -25 0 0 -175z"/>
<path d="M1590 1805 c0 -21 5 -25 30 -25 l30 0 0 -150 0 -150 25 0 25 0 0 150
0 150 30 0 c25 0 30 4 30 25 0 25 -1 25 -85 25 -84 0 -85 0 -85 -25z"/>
<path d="M1780 1655 l0 -175 30 0 30 0 0 70 c0 67 1 70 24 70 29 0 36 -16 36
-86 0 -52 1 -54 28 -54 l27 0 -3 67 c-2 38 -10 75 -17 83 -11 13 -11 18 1 34
8 11 14 43 14 73 0 75 -20 93 -105 93 l-65 0 0 -175z m108 76 c2 -28 -1 -47
-10 -52 -30 -19 -38 -9 -38 47 0 52 1 55 23 52 18 -2 23 -10 25 -47z"/>
<path d="M1996 1808 c-13 -17 -16 -51 -16 -149 0 -113 2 -129 21 -153 17 -22
28 -26 69 -26 70 0 80 23 80 175 0 155 -10 175 -92 175 -37 0 -50 -5 -62 -22z
m92 -151 c2 -102 0 -118 -14 -124 -31 -11 -44 24 -44 116 0 110 6 133 34 129
20 -3 21 -9 24 -121z"/>
<path d="M2173 1818 c2 -7 15 -46 28 -87 l24 -73 -32 -89 -31 -89 27 0 c25 0
30 6 46 60 10 33 21 60 25 60 4 0 15 -27 25 -60 17 -55 21 -60 47 -60 15 0 28
3 28 7 0 4 -12 44 -27 90 l-27 83 23 72 c13 40 26 79 29 86 3 10 -3 13 -23 10
-24 -2 -31 -11 -44 -50 -9 -26 -19 -49 -22 -52 -3 -3 -13 19 -23 49 -16 51
-19 55 -48 55 -20 0 -29 -4 -25 -12z"/>
</g>
</svg>
